/* XPM */
static char *_970ba303cde4bd39518f791b4d2f23cgW9p5pYkFVDlc8MY[] = {
/* columns rows colors chars-per-pixel */
"64 64 70 1 ",
"  c None",
". c #C15712",
"X c #C25712",
"o c #C25713",
"O c #C15812",
"+ c #C25812",
"@ c #C25813",
"# c #C45913",
"$ c #C65A13",
"% c #C95B13",
"& c #CB5C14",
"* c #C55C18",
"= c #D05E14",
"- c #D25F14",
"; c #C9611E",
": c #D56115",
"> c #D76215",
", c #D96315",
"< c #DC6415",
"1 c #DE6516",
"2 c #E06616",
"3 c #E36716",
"4 c #E56816",
"5 c #E86A17",
"6 c #E96D1C",
"7 c #CC6623",
"8 c #D77534",
"9 c #DB7A39",
"0 c #EA7121",
"q c #EB7526",
"w c #E87A2F",
"e c #ED792C",
"r c #EE7C31",
"t c #CD7C45",
"y c #EF8036",
"u c #F0843C",
"i c #BB8B66",
"p c #E6884A",
"a c #E98A48",
"s c #F28841",
"d c #F38B46",
"f c #F48F4C",
"g c #F79756",
"h c #F1975B",
"j c #F89A5C",
"k c #D5986A",
"l c #F99E61",
"z c #F8A166",
"x c #FAA266",
"c c #FCA66C",
"v c #EBAA79",
"b c #B89C82",
"n c #AFAB9F",
"m c #B3B0A4",
"M c #B5B2A6",
"N c #B6B3A7",
"B c #B9B6AA",
"V c #ECBA92",
"C c #C4C1B4",
"Z c #CBC8BA",
"A c #CECBBE",
"S c #E3CBB3",
"D c #EDD2B7",
"F c #D6D2C4",
"G c #E0DDCE",
"H c #E2DFD1",
"J c #E4E0D2",
"K c #EBE7D8",
"L c #EEE9DB",
"P c #EFEBDC",
/* pixels */
"                                                                ",
"                                                                ",
"                                                                ",
"                                                                ",
"                                                                ",
"                                                                ",
"                                                                ",
"                                                                ",
"                                                                ",
"                                                                ",
"                                                                ",
"                                                                ",
"                                                                ",
"                                                                ",
"                             o@@@@@@o                           ",
"                          @@@@@@@@@@@@@o                        ",
"                        o@@$=>111111>&@@@                       ",
"                      @@@%1555555555553>@@@                     ",
"                     o@$1555555555555555>$@o                    ",
"                    o@%3555555550e55555553$@o                   ",
"                   o@&455555555qcce55555554%@@                  ",
"                   @$4555555555uccs555555553@@                  ",
"                  @@15555eq55556xcq555555555>@o                 ",
"                 o@=5555dccjq5555555555555553@@                 ",
"                 @@35550ccccx5555555555555555$@                 ",
"                 @=5555eccccc5555555555555555=@                 ",
"                o@15555qccccc5555555555yccj65=@                 ",
"                @@455555lcccl5555555555xcccl,@@                 ",
"                @@lfr555qlcxq555555555ecccx9@@                  ",
"                @@cccr5555555555555555ecxp;@@                   ",
"                @@cccg555555555555555538*@@o                    ",
"                o@xccg55555555555551=$@@@@                      ",
"                @@7hcs5555555wavVDPt@@@                         ",
"                 o@@@@@@@@@@@kPPPPPSib                          ",
"                   @@@@@@@@@@tPPPPPPBN                          ",
"                            NCPPPPPPZN                          ",
"                            NCPPPPPPFN                          ",
"                            NAPPPPPPGN                          ",
"                            NFPPPPPPKN                          ",
"                            NJPPPPPPPm                          ",
"                            BPPPPPPPPn                          ",
"                            ZPPPPPPPP                           ",
"                            GPPPPPPPP                           ",
"                            LPPPPPPPL                           ",
"                               HHH                              ",
"                                                                ",
"                                                                ",
"                                                                ",
"                                                                ",
"                                                                ",
"                                                                ",
"                                                                ",
"                                                                ",
"                                                                ",
"                                                                ",
"                                                                ",
"                                                                ",
"                                                                ",
"                                                                ",
"                                                                ",
"                                                                ",
"                                                                ",
"                                                                ",
"                                                                "
};
