/* XPM */
static char *_ac9e15d3baf49bbbb25be30d4c87082vJ8632W5FjI4d6bj[] = {
/* columns rows colors chars-per-pixel */
"64 64 118 2 ",
"   c None",
".  c #5F7474",
"X  c #7A796A",
"o  c #607476",
"O  c #627676",
"+  c #6F7972",
"@  c #6A7976",
"#  c #637779",
"$  c #637879",
"%  c #647979",
"&  c #65797A",
"*  c #64797B",
"=  c #657A7A",
"-  c #647A7B",
";  c #657A7B",
":  c #667B7C",
">  c #677C7E",
",  c #677D7E",
"<  c #687D7E",
"1  c #B5793E",
"2  c #BA7839",
"3  c #BB7839",
"4  c #BB7939",
"5  c #BA783A",
"6  c #BA793A",
"7  c #BB793A",
"8  c #BD7A3A",
"9  c #C07C3B",
"0  c #C37E3C",
"q  c #90795A",
"w  c #B17940",
"e  c #B57F48",
"r  c #C6803D",
"t  c #C8823E",
"y  c #CB833F",
"u  c #B08657",
"i  c #958061",
"p  c #B19068",
"a  c #A69475",
"s  c #AC9777",
"d  c #A6997D",
"f  c #BCA27C",
"g  c #D18741",
"h  c #D38941",
"j  c #D68B42",
"k  c #DC8E44",
"l  c #DE9045",
"z  c #D79A5B",
"x  c #E19246",
"c  c #E49447",
"v  c #E79648",
"b  c #E1974E",
"n  c #D19C62",
"m  c #697E80",
"M  c #6A8081",
"N  c #6C8284",
"B  c #6D8385",
"V  c #6E8485",
"C  c #6F8687",
"Z  c #708688",
"A  c #708788",
"S  c #718889",
"D  c #71888A",
"F  c #72898A",
"G  c #738A8B",
"H  c #738A8C",
"J  c #748B8D",
"K  c #758D8F",
"L  c #768E90",
"P  c #778F90",
"I  c #778F91",
"U  c #789092",
"Y  c #789192",
"T  c #799194",
"R  c #799294",
"E  c #7A9294",
"W  c #7A9396",
"Q  c #7B9496",
"!  c #7D9698",
"~  c #7E9799",
"^  c #7E989A",
"/  c #809A9C",
"(  c #819B9C",
")  c #819B9D",
"_  c #829C9E",
"`  c #839D9F",
"'  c #B1A589",
"]  c #ACA790",
"[  c #839EA0",
"{  c #849FA1",
"}  c #85A0A2",
"|  c #86A0A2",
" . c #86A1A3",
".. c #87A2A4",
"X. c #88A4A6",
"o. c #89A5A6",
"O. c #8AA5A7",
"+. c #8BA7A9",
"@. c #8CA8AA",
"#. c #8DA9AB",
"$. c #8EAAAC",
"%. c #8FABAD",
"&. c #97ADAA",
"*. c #90ADAF",
"=. c #92AFB1",
"-. c #94B1B4",
";. c #97B4B7",
":. c #98B5B9",
">. c #99B7B9",
",. c #99B8BA",
"<. c #9AB9BB",
"1. c #9BB9BC",
"2. c #9CBABD",
"3. c #9CBBBD",
"4. c #9EBCBF",
"5. c #9FBDC0",
"6. c #9FBEC0",
"7. c #A0BFC2",
/* pixels */
"                                                                                                                                ",
"                                                                                                                                ",
"                                                                                                                                ",
"                                                                                                                                ",
"                                                                                                                                ",
"                                                                                                                                ",
"                                                                                                                                ",
"                                                                                                                                ",
"                          6 6 6                                                                 6 6 6                           ",
"                          6 8 6 6                                                             6 6 8 6                           ",
"                          6 g r 6 6                                                         6 6 r g 6 6                         ",
"                        6 6 k x 8 6                                                         6 8 x k 6 6                         ",
"                        6 6 v v g 6 6                                                     6 6 g v v 6 6                         ",
"                        6 r v v v 9 6                                                     6 9 v v v r 6                         ",
"                        6 h v v v k 6 6                                                 6 6 k v v v h 6 6                       ",
"                      6 6 l v v v v t 6 6                                             6 6 t v v v v l 6 6                       ",
"                      6 8 v v v v v c 8 6                                             6 8 c v v v v v 8 6                       ",
"                      6 t v v v v v v h 6 6                                         6 6 h v v v v v v t 6                       ",
"                    6 6 j v v v v v v v 0 6 w                                     w 6 0 v v v v v v v j 6 6                     ",
"                    6 6 x v v v v v v v l 6 6 + =                             = @ 1 6 l v v v v v v v x 6 6                     ",
"                    6 9 v v v n f f f f f p u i = =                         = = q e p f f f f f n b v v 9 6                     ",
"                    6 t z ' &.=.=.=.=.=.=.=.=.@.= =                         = = / =.=.=.=.=.=.=.=.=.] z t 6                     ",
"                  q 6 s =.=.=.=.=.=.=.=.=.=.=.Y =                             = S =.=.=.=.=.=.=.=.=.=.=.d 6 q =                 ",
"                = X a =.=.=.=.=.=.=.=.=.=.=.=., =                             = = $.=.=.=.=.=.=.=.=.=.=.=.a X =                 ",
"                = , @.=.=.=.=.=.=.=.=.=.=.=./ = =                               = ! =.=.=.=.=.=.=.=.=.=.=.@., =                 ",
"                = = B $.=.=.=.=.=.=.=.=.=.=.A = = = =     = = = = = = = = = = = = B =.=.=.=.=.=.=.=.=.=.$.B = =                 ",
"                  = = S =.=.=.=.O._ O.=.=.=.= = = = = = = = = = = = = = = = = = = = =.=.=...! _ *.=.=.=.K = =                   ",
"                    = = Q =.=.=.! ! ! =.=.=.! ! ! E = = = J ! ! ! ! Y = = I ! ! ! ! =.=.$.! ! ! +.=.=.Q = =                     ",
"                      = = =.=.=.! ! ! $.=.=.! ! ! ! < = : ! ! ! ! ! ! : = ! ! ! ! ! =.=.+.! ! ! @.=.=.= =                       ",
"                      = = O.=.=._ ! ! @.=.=./ ! ! ! V = V ! ! ! ! ! ! B < ! ! ! ! ! =.=...! ! ! =.=.O.= =                       ",
"                      = = | =.=.| ! ! ..=.=._ ! ! ! Y S E ! ! ! ! ! ! E Y ! ! ! ! _ =.=.| ! ! ! =.=.| = =                       ",
"                      = = [ =.=.=.=.=.=.=.=._ ! ! ! ! ! ! ! ! ! ! ! ! ! ! ! ! ! ! _ =.=._ ! ! _ =.=.[ = =                       ",
"                        = Q =.=.=.=.=.=.=.=._ ! ! ! ! ! ! ! ! ! ! ! ! ! ! ! ! ! ! _ =.=.=.=.=.=.=.=.Q =                         ",
"                        = Q =.=.=.=.=.=.=.=.{ ! ! ! ! ! ! ! ! ! ! ! ! ! ! ! ! ! ! _ =.=.=.=.=.=.=.=.Q =                         ",
"                        = A =.=.=.=.=.=.=.=...! ! ! ! ! ! ! ! ! ! ! ! ! ! ! ! ! ! _ =.=.=.=.=.=.=.=.A =                         ",
"                        = A =.=.=.=.=.=.=.=...! ! ! ! ! ! ! ! ! ! ! ! ! ! ! ! ! ! _ =.=.=.=.=.=.=.=.A =                         ",
"                        = M =.=.=.=.=.=.=.=...! ! ! ! ! ! ! ! ! ! ! ! ! ! ! ! ! ! ..=.=.=.=.=.=.=.=.M =                         ",
"                        = = =.=.=.=.=.=.=.=.O.! ! ! E I I S A A m m , # # A ! ! ! ..=.=.=.=.=.=.=.=.= =                         ",
"                          = $.=.=.=.=.=.=.=.@.! ! ! A # # # # # # # # # # S ! ! ! ..=.=.=.=.=.=.=.$.= =                         ",
"                          = | =.=.=.=.=.=.=.@.! ! ! A # # # # # # # # # # I ! ! ! ..=.=.=.=.=.=.=.| =                           ",
"                          = | =.=.=.=.=.=.=.@.! ! ! H # # # # # # # # # # I ! ! ! ..=.=.=.=.=.=.=.| =                           ",
"                          = Q =.=.=.=.=.=.=.$.! ! ! I # # # # # # # # # # I ! ! ! +.=.=.=.=.=.=.=.Q =                           ",
"                          $ Q =.=.=.=.=.=.=.=.! ! ! I # # # # # # # # # # E ! ! ! @.=.=.=.=.=.=.=.Q =                           ",
"                          O K =.=.=.=.=.=.=.=.! ! ! I # # # # # # # # # # ! ! ! ! @.=.=.=.=.=.=.=.K =                           ",
"                          . S >.>.<.3.3.5.7.7.! ! ! I # # # # # # # # # # ! ! ! ! -.3.3.3.<.>.>.>.S =                           ",
"                            I 7.7.7.7.7.7.7.7.! ! ! E # # # # # # # # # # ! ! ! ! ;.7.7.7.7.7.7.7.^ $                           ",
"                            _ 7.7.7.7.7.7.7.7./ ! ! ! # # # # # # # # # , ! ! ! ! 1.7.7.7.7.7.7.7.@.O                           ",
"                            | 7.7.7.7.7.7.7.7.| ! ! ! # # # # # # # # # m ! ! ! ! 7.7.7.7.7.7.7.7.3..                           ",
"                            4.7.7.7.7.7.7.7.7.| E                             E E 7.7.7.7.7.7.7.7.7.                            ",
"                              >.7.7.7.7.7.5.                                        >.5.7.7.7.5.1.                              ",
"                                                                                                                                ",
"                                                                                                                                ",
"                                                                                                                                ",
"                                                                                                                                ",
"                                                                                                                                ",
"                                                                                                                                ",
"                                                                                                                                ",
"                                                                                                                                ",
"                                                                                                                                ",
"                                                                                                                                ",
"                                                                                                                                ",
"                                                                                                                                ",
"                                                                                                                                ",
"                                                                                                                                "
};
