/* XPM */
static char *_7e40e554fdb4ba191b7f4f7075d24a1qsV1Dah1dbZc5MNX[] = {
/* columns rows colors chars-per-pixel */
"64 64 33 1 ",
"  c #CB8E5F",
". c #CC8F5F",
"X c #CD8F60",
"o c #CE9060",
"O c #CF9161",
"+ c #D09161",
"@ c #D19262",
"# c #D19362",
"$ c #D29362",
"% c #D39463",
"& c #D49463",
"* c #D49563",
"= c #D59564",
"- c #D69664",
"; c #D79765",
": c #D89765",
"> c #D89865",
", c #D99865",
"< c #D99866",
"1 c #D99966",
"2 c #DA9966",
"3 c #DB9A66",
"4 c #DB9A67",
"5 c #DC9A67",
"6 c #DC9B67",
"7 c #DD9B67",
"8 c #DD9C68",
"9 c #DE9C68",
"0 c #DF9D68",
"q c #DF9D69",
"w c #E09E69",
"e c #E19E69",
"r c #E29F6A",
/* pixels */
";;;;;;;;;;;;;;;;;;;;;;;;;;;;;;;;;;;;;;&         &;;;;;;;;;;;;;;;",
";;;;;;;;;;;;;;;;;;;;;;;;;;;;;;;;;;;;;;@         ;;;;;;;;;;;;;;;;",
";;;;;;272;;;;;;;;;;;;;;;;;;;;;;;;;;;;;@         ;;;;;;;;;;;;;;;;",
";;;;27997;;;;;;;;;&@;;;;;;;;;;;;;;;;;;@         ;;;;;;;;;;;;;;;;",
";;;7999992;;;;;;;;  o;;;;;;;;;;;;;;;;;o        .;;;;;;;;;;;;;;;;",
";;;2999997;;;;;;;X   X;;;;;;;;;;;;;;;;;;;&&@@oo@;;;;;;;;;;;;;;;;",
";;;;799997;;;;;;X     .&;;;;;;;;;;;;;;;;;;;;;;;;;;;;;;;;;;;;;;;;",
";;;;29972;;;;;;X        &;;;;;;;;;;;;;;;;;;;;;;;;;;;;;;;;;;;;;;;",
";;;;;22;;;;;;;o          @;;;;;;;;;;;;;;;;;;;;;;;;;;;;;;;;;;;;;;",
";;;;;;;;;;;;;o            ;;;;;;;;;;;;;;;9r2;;;;;;;;;;;;;;;;;;&@",
"&;;;;;;;;;;;;@           &;;;;;;;;;;;;;;2rrr7;;;;;;;;;;;;;%@X   ",
"@;;;;;;;;;;;;;@         @;;;;;;;;;;;;;;2rrrrr92;;;;;;;;;@       ",
"o;;;;;;;;;;;;;;@       @;;;;;;;;;;;;;;;9rrrrrr;;;;;;;;;;&       ",
" ;;;;;;;;;;;;;;;&     @;;;;;;;;;;;;;;;;7rrrrr2;;;;;;;;;;;       ",
" &;;;;;;;;;;;;;;;&   @;;;;;;;;;;;;;;;;;;2rrr7;;;;;;;;;;;;o      ",
" @;;;;;;;;;;;;;;;;& o;;;;;;;;;;;;;;;;;;;;;79;;;;;;;;;;;;;@      ",
" o;;;;;;;;;;;;;;;;;;;;;;;;;;;;;;;;;;;;;;;;;;;;;;;;;;;;;;;&      ",
"&;;;;;;;;;;;;;;;;;;;;;;;;;;;;;;;;;;;;;;;;;;;;;;;;;;;;;;;;;   .o@",
";;;;;;;;;;;;;;;;;;;;;;;;;;;;;;;;;;;;;;;;;;;;;;;;;;;;;;;;;;@%;;;;",
";;;;;;;;;;:2:;;;;;;;;;;;;;;;;;;799772;;;;;;;;;;;;;;;;;;;;;;;;;;;",
";;;;;;;;;;299722:;;;;;;;;;;;;;;799992;;;;;;;;;;;;:2;;;;;;;;;;;;;",
";;;;;;;;;;7999999722:;;;;;;;;;;999992;;;;;;;;;;;:792;;;;;;;;;;;;",
";;;;;;;;;;99999999992;;;;;;;;;;999992;;;;;;;;;;;79997;;;;;;;;;;;",
";;;;;;;;;299999999992;;;;;;;;;299999;;;;;;;;;;;7999997;;;;;;;;;;",
";;;;;;;;;29999999999;;;;;;;;;;;22222;;;;;;;;;;:7999992;;;;;;;;;;",
";;;;;;;;;79999999997;;;;;;;;;;;;;;;;;;;;;;;;;;;:79992;;;;;;;;;;;",
";;;;;;;;;99999999992;;;;;;;;;;;;;;;;;;;;;;;;;;;;;797;;;;;;;;;;;;",
";;;;;;;;299999999992;;;;;;;;;;;;;;;;;;;;;;;;;;;;;;2;;;;;;;;;;;;;",
";;;;;;;;29999999999;;;;;;;;;;;;;;;;;;;;;;;;;;;;;;;;;;;;;;;;;;;;;",
";;;;;;;;:2799999997;;;;;;;;;;;@o &;;;;;;;;;;;;;;;;;;;;;;;;;;;;;;",
";;;;;;;;;;;;2279992;;;;;;;&@X    @;;;;;;;;;:72;;;;;;;@;;;;;;;;;;",
";;;;;;;;;;;;;;;;222;;;;;;@       X;;;;;;;;2997:;;;;;&  o@;;;;;;;",
";;;;;;;;;;;;;;;;;;;;;;;;;;        ;;;;;;;299997:;;;;o     ;;;;;;",
";;;;;;;;;;;;;;;;;;;;;;;;;;o       @;;;;;:9999997;;;;     .;;;;;;",
"22;;;;;;;;;;;;;;;;;;;;;;;;@       o;;;;;;2999992;;;@     @;;;222",
"99:;;;;;;;22;;;;;;;;;;;;;;;        ;;;;;;;29972;;;;@.    ;;;2999",
"992;;;;;;;9r7;;;;;;;;;;;;;;o     o@;;;;;;;;27:;;;;;;;&o X;;;;999",
"992;;;;;;9rrr92;;;;;;;;;;;;@  X@;;;;;;;;;;;;;;;;;;;;;;;;;;;;;999",
"992;;;;;2rrrrrr;;;;;;;;;;;;;@;;;;;;;;;;;;;;;;;;;;;;;;;;;;;;;;999",
"972;;;;;rrrrrr7;;;;;;;;;;;;;;;;;;;;;;;;;;;;;;;;;;;;;;;;;;;;;;799",
";;;;;;;;29rrr9;;;;;;;;;;;;;;;;;;;;;;;;;;;;;;;;;;;;;;;;;;;;;;;:2;",
";;;;;;;;;;9rr2;;;;;;;;;;;;;;;;;;;;;;;;;;;;;;;;;;;;;;;;;;;;;;;;;;",
";;;;;;;;;;;22;;;;;;;;;;;;;;;;;;;;;;;;;;;;;;;;;;;222;;;;;;;;;;;;;",
";;;;;;;;;;;;;;;;;;;;;;;;;;;;;;;;;;;;;;;;;;;;;279992;;;;;;;;;;;;;",
";;;;;;;;;;;;;;;;;;;;;;;;;;;;;;;;;;;;;;;;;;;79999997;;;;;;;;;;;;;",
";;;;;;;;;;;;@&;;;;;;;;;;;;;;;;;;;;;;;;;;;;;799999992;;;;;;;;;;;;",
";;;;;;;;;&o  o;;;;;2r972;;;;;;;;;;;;o;;;;;;299999992;;;;;;;;;;;;",
";;;;;;;;@     ;;;;;9rrrrr9722;;;;&o  o;;;;;299999997;;;;;;;;;;;;",
";;;;;;;;;     &;;;;rrrrrrrrrr2;;@     ;;;;;;99999999:;;;;;;;;;;;",
";;;;;;;;;o    @;;;;rrrrrrrrrr2;;%     @;;;;;299999922;;222;;;;;;",
";;;;;;;;;&  .@&;;;2rrrrrrrrrr;;;;.     ;;;;;299922;;;;;9rrrr9;;;",
";;;;;;;;;;@&;;;;;;7rrrrrrrrr9;;;;@   .@;;;;;;22;;;;;;;;rrrrr7;;;",
";;;;;;;;;;;;;;;;;;9rrrrrrrrr7;;;;; X@;;;;;;;;;;;;;;;;;;rrrrr7;;;",
";;;;;;;;;;;;;;;;;;rrrrrrrrrr2;;;;;;;;;;;;;;;;;;;;;;;;;;rrrrr2;;;",
";;;;;;;;;;;;;;;;;2rrrrrrrrrr;;;;;;;;;;;;;;;;;;;;;;;;;;2rrrrr2;;;",
";;;;;;;;;;;;;;;;;2rrrrrrrrr9;;;;;;;;;;;;;;;;;;;;;;;;;;;22277;;;;",
";;;:227:;;;;;;;;;;;;279rrrr7;;;;;;;;;;;;;;;;;;;;;;;;;;;;;;;;;;;;",
";:999992;;;;;;;;;;;;;;;;2792;;;;;;;;;;;;;;;;;;;;;;;;;;;;;;;;;;;;",
";;999992;;;;;;;;;;;;;;;;;;;;;;;;;;;;;;;;;;;;;;;;;;;;;;;;;;;;;;;;",
";;799997;;;;;;;;;;;;;;;;;;;;;;;;;;;;;;;@o@@&&;;;;;;;;;;;;;;;;;;;",
";;299997;;;;;;;;;;;;;;;;;;;;;;;;;;;;;;;        o@;;;;;;;;;;;;;;;",
";;299977;;;;;;;;;;;;;;;;;;;;;;;;;;;;;;;         o;;;;;;;;;;;;;;;",
";;;2;;;;;;;;;;;;;;;;;;;;;;;;;;;;;;;;;;;         @;;;;;;;;;;;;;;;",
";;;;;;;;;;;;;;;;;;;;;;;;;;;;;;;;;;;;;;&         @;;;;;;;;;;;;;;;"
};
