/* XPM */
static char *c243653f505542bac95ffcc62da456b5hgFVIP9OuhNgo8kQ[] = {
/* columns rows colors chars-per-pixel */
"64 64 111 2 ",
"   c None",
".  c #A55B72",
"X  c #A95F76",
"o  c #AA657A",
"O  c #B3677E",
"+  c #B06F83",
"@  c #B86B83",
"#  c #B9768D",
"$  c #B5798C",
"%  c #BB788E",
"&  c #BC798F",
"*  c #BD7990",
"=  c #BF7A92",
"-  c #C67790",
";  c #C07B92",
":  c #C07B93",
">  c #C17D93",
",  c #C27C93",
"<  c #C17C94",
"1  c #C17D94",
"2  c #C27C94",
"3  c #C27D94",
"4  c #C47E96",
"5  c #CB7B94",
"6  c #BB8495",
"7  c #C78098",
"8  c #C5859A",
"9  c #CA829A",
"0  c #CD849C",
"q  c #C3899C",
"w  c #C38B9E",
"e  c #D4839D",
"r  c #D0869E",
"t  c #D1869F",
"y  c #D987A1",
"u  c #D388A1",
"i  c #D68AA3",
"p  c #D98CA5",
"a  c #DB8DA6",
"s  c #DC8EA7",
"d  c #C490A2",
"f  c #C792A4",
"g  c #DF90A9",
"h  c #E28FAA",
"j  c #E292AC",
"k  c #E793AE",
"l  c #E594AE",
"z  c #E795AF",
"x  c #E896B0",
"c  c #EC97B2",
"v  c #EB98B2",
"b  c #EE9AB4",
"n  c #EE9AB5",
"m  c #EF9BB6",
"M  c #F19CB7",
"N  c #C7A4B0",
"B  c #C7A9B3",
"V  c #C7ABB4",
"C  c #CDAAB6",
"Z  c #D2ADB8",
"A  c #C9B8BE",
"S  c #D3B0BB",
"D  c #F1A2BB",
"F  c #CABCC0",
"G  c #D7B7C1",
"H  c #DAB7C3",
"J  c #DDBAC6",
"K  c #F2A8C0",
"L  c #F3AEC4",
"P  c #EDBBCB",
"I  c #F4B4C9",
"U  c #F5BACD",
"Y  c #CBC7C8",
"T  c #CBCBCB",
"R  c gray80",
"E  c gray81",
"W  c #D2D2D2",
"Q  c #D5D5D5",
"!  c #D8D8D8",
"~  c gray86",
"^  c #DFDFDF",
"/  c #E4C6D0",
"(  c #E2CBD2",
")  c #F1C2D1",
"_  c #F6C1D2",
"`  c #F7C7D6",
"'  c #F8CDDB",
"]  c #E8D6DB",
"[  c #EBD6DD",
"{  c #F8D3DF",
"}  c #F9D9E4",
"|  c #E2E2E2",
" . c gray90",
".. c #EEE0E4",
"X. c gray91",
"o. c gray92",
"O. c #EFEFEF",
"+. c #F2E4E8",
"@. c #FAE0E8",
"#. c #FBE6ED",
"$. c #F7E8ED",
"%. c #F7EEF1",
"&. c #FCECF1",
"*. c gray95",
"=. c gray96",
"-. c #FDF2F6",
";. c #F9F4F6",
":. c #F8F8F8",
">. c #FBFBFB",
",. c #FEF8FA",
"<. c white",
/* pixels */
"                                                                                                                                ",
"                                                                                                                                ",
"                                                                                                                                ",
"                                                                                                                                ",
"                                                                                                                                ",
"                                                                                                                                ",
"                                                  T T R R R R R R R R R R                                                       ",
"                                              T R R R R ! ! ! ! ! ! Q R R R R R                                                 ",
"                                          R R R R | =.<.<.<.<.<.<.<.<.>.X.! R R R                                               ",
"                                        R R R X.<.<.<.<.<.<.<.<.<.<.<.<.<.<.>.! R R R                                           ",
"                                      R R ^ <.<.<.<.=.X.! ! ! ! ! ! | O.>.<.<.<.=.R R T                                         ",
"                                    R R X.<.<.<.O.W R R R R R R R R R R R ^ >.<.<.>.Q R R                                       ",
"                                  R R | <.<.>.Q R R R T               R R R R X.<.<.>.R R R                                     ",
"                                T R ! <.<.=.R R R                         R R R ^ <.<.=.R R                                     ",
"                              T R Q <.<.>.Q R T                               R R X.<.<.X.R R                                   ",
"                              R R =.<.<.! R T                                   R R *.<.<.! R R                                 ",
"                            R R ^ <.<. .R R           > > 3 3 3 3 3 3             R R >.<.>.R R                                 ",
"                            R R >.<.>.R R         3 3 3 3 3 3 3 3 3 3 3 3 3       R R | <.<.! R T                               ",
"                            R ! <.<.| R R     3 3 3 r j b M M M M M l i 4 3 >       R R >.<.O.R R                               ",
"                          R R X.<.<.W R     3 3 0 x M M M M M M M M M M M i 3 3     R R X.<.<.R R                               ",
"                          R R >.<.=.R R   3 3 r M M M M M M M M M M M M M M s 3 >     R ! <.<.! R                               ",
"                          R R <.<.X.R R 3 3 7 b M M M M M M M M M M M M M M M u 3 >   R W <.<.| R                               ",
"                          R ! <.<. .R F > 3 x M M M M M M M M U ,.<.<.<.' M M M 0 3 3 R R <.<. .R                               ",
"                          R ! <.<.| R N 3 u M M M M M M M M K ,.;.G $ 6 ( U M M x 3 3 R R <.<. .R                               ",
"                          R ! <.<.^ R w 3 v M M M M M M M M } <.Z . . . o $.M M M u 3 A R <.<. .R                               ",
"                          R W <.<. .Y 3 9 M M M M M M M M M #.<.o . . . . ] M M M j 3 B R <.<. .R                               ",
"                          R R <.<.O.A 3 i M M M M M M M M M ' <.+ . . . . +.M M M b 3 N R <.<. .R                               ",
"                          R R *.<.*.B 3 p M M M M M M M M M I <...$ . o ( ' M M M M 3 d ! <.<.! R                               ",
"                          R R | <.<.C 3 p M M M M M M M M M M _ ,.<.<.<.{ M M M M M 3 d X.<.<.R R                               ",
"                            R Q <.<.J 3 p M M M M M M M M M M M D I I L M M M M M M 3 d >.<.O.R R                               ",
"                            R R *.<.%.3 p M M M M M M M M M M M M M M M M M M M M M 3 H <.<.! R                                 ",
"                            T R ! <.<./ p M M M M M M M M M c c M M M M M k M M M M 8 %.<.>.R R                                 ",
"                              R R O.<.<.P M M M M M M M M M 5 @ M M M M e @ M M M M [ <.<.! R T                                 ",
"                                R W >.<.<.L M M M M M M M M c O O - 5 - X h M M M } <.<.O.R R                                   ",
"                                R R ! <.<.,._ M M M M M M M M M y 5 5 e M M M D #.<.<.>.R R                                     ",
"                                w d f ) ,.<.<.` D M M M M M M M M M M M M M L &.<.<.#.S N V                                     ",
"                              3 3 4 x M L ,.<.<.-.U M M M M M M M M M M K { <.<.<.} M p 3 >                                     ",
"                              3 4 x M M M L &.<.<.<.-.{ I I I I I I _ @.<.<.<.,.{ M M M 7 3                                     ",
"                            > 3 g M M M M M M ` -.<.<.<.<.<.<.<.<.<.<.<.<.<.@.K M M M M p 3 3                                   ",
"                            3 0 M M M M v M M M M _ #.<.<.<.<.<.<.<.<.,.{ K M M M M M M v 3 3                                   ",
"                          3 3 l M M b r 0 M M M M M M D I I I I I I L M M M M M M b M M M 7 3                                   ",
"                          3 7 M M M 0 3 0 M M M M M M M M M M M M M M M M M M M M p M M M 0 3                                   ",
"                          3 i M M j 3 3 0 M M M M M M M M M M M M M M M M M M M M 9 b M M 0 3                                   ",
"                        3 3 j M M u 3 3 0 M M M M M M M M M M M M M M M M M M M b 3 l M M 0 3                                   ",
"                        3 3 g M M 0 3 3 0 M M M M M M M M M M M M M M M M M M M j 3 l M M 0 3                                   ",
"                          3 9 j j 3 3 3 0 M M M M M M M M M M M M M M M M M M M p 3 s M x 3 3                                   ",
"                          3 3 3 3 3 : 3 p M M M M M M M M M M M M M M M M M M M r 3 3 3 3 3 3                                   ",
"                            > : =     3 p M M M M M M M M M M M M M M M M M M M 7 3 3 3 >                                       ",
"                                      = g M M M M b l v M M M M M M M M M M M M 3 3                                             ",
"                                      % l M M M M i 3 3 9 0 0 0 0 0 i M M M M v 3 =                                             ",
"                                        b M M M M 4 3 3 3 3 3 3 3 3 4 M M M M l 3                                               ",
"                                        M M M M j 3 #             : 3 M M M M j =                                               ",
"                                        M M M M r                   & x M M M p                                                 ",
"                                        v M M l                         b M b                                                   ",
"                                                                                                                                ",
"                                                                                                                                ",
"                                                                                                                                ",
"                                                                                                                                ",
"                                                                                                                                ",
"                                                                                                                                ",
"                                                                                                                                ",
"                                                                                                                                ",
"                                                                                                                                ",
"                                                                                                                                "
};
