/* XPM */
static char *a8d50aa8330d4ab9ee39035e3d19cbb4OXNDSeRuFZhAENNp[] = {
/* columns rows colors chars-per-pixel */
"64 64 77 1 ",
"  c None",
". c #95794D",
"X c #987F51",
"o c #A16F4A",
"O c #A3724B",
"+ c #A6724B",
"@ c #A8744D",
"# c #A8754D",
"$ c #AA774E",
"% c #AD7950",
"& c #A87D51",
"* c #B37D53",
"= c #B57E53",
"- c #B67F54",
"; c #3A8F50",
": c #209450",
"> c #209550",
", c #219551",
"< c #219853",
"1 c #229B55",
"2 c #239F57",
"3 c #24A259",
"4 c #25A65B",
"5 c #25A95D",
"6 c #26AD5F",
"7 c #27B061",
"8 c #28B363",
"9 c #29B765",
"0 c #29BA67",
"q c #2ABE69",
"w c #2BBF6A",
"e c #53894F",
"r c #44BB6A",
"t c #54B065",
"y c #58BE6E",
"u c #7CAD68",
"i c #77B46B",
"p c #2BC06A",
"a c #2BC16B",
"s c #2BC26B",
"d c #2BC36C",
"f c #2CC36C",
"g c #2CC46D",
"h c #2CC56D",
"j c #2CC66D",
"k c #2CC76E",
"l c #2DC76E",
"z c #2DC86F",
"x c #2DC96F",
"c c #35C66E",
"v c #3DC16C",
"b c #2DCA70",
"n c #2DCB70",
"m c #2ECC71",
"M c #4DC26E",
"N c #918553",
"B c #9C8D59",
"V c #95935C",
"C c #BF8659",
"Z c #B78B5B",
"A c #BC9963",
"S c #8AAC68",
"D c #97AA69",
"F c #82B16B",
"G c #A2A768",
"H c #ACA468",
"J c #B7A067",
"K c #C08659",
"L c #C58A5C",
"P c #C88C5D",
"I c #CB8E5F",
"U c #C0915F",
"Y c #CE9060",
"T c #C19D66",
"R c #D19262",
"E c #D49563",
"W c #D79765",
/* pixels */
"                                                                ",
"                                                                ",
"                                                                ",
"                                                                ",
"                         :::::::::::::                          ",
"                       :::::1333331:::::                        ",
"                     ::::18zmmmmmmmz93:::                       ",
"                    :::10mmmmmmmmmmmmma2:::                     ",
"                   :::4zmmmmmmmmmmmmmmmm7:::                    ",
"                  :::9mmmmmmmmmmmmmmmmmmmw<::                   ",
"                 :::9mmmmmmmmmmmmmmmmmmmmma<::                  ",
"                 ::8mmmmmmmmmmmmmmmmmmmmmmma::                  ",
"                ::2mmmmmmmmmmmmmmmmmmmmmmmmm6::                 ",
"               ::<hmmmmmmmmmmmmmmmmmmmmmmmmmm2::                ",
"               ::7mmmmmmmmmmmmmmmmmmmmmmmmmmmw::                ",
"              ::1mmmmmmmmmmmmmmmmmmmmmmmmmmmmm5::               ",
"              ::9mmmmmmmmmmmmmmmmmmmmmmmmmmmmmh::               ",
"             ::1mmmmmmmmmmmmmmmmmmmmmmmmmmmmmmm5:               ",
"             ::8mmmmmmmmmmmmmmmmmmmmmmmmmmmmmmma::              ",
"             ::zmmmmmmmmmmmmmmmmmmmmmmmmmmmmmmmm2:              ",
"            ::2mmmmmmmmmmmmmmmmmmmmmmmmmmmmmmmmm6:              ",
"            ::7mmmmmmmmmmmmmmmmmmmmmmmmmmmmmmmmmw::             ",
"            ::wmmmmmmmmmmmmmmmmmmmmmmmmmmmmmmmmmm::             ",
"            ::zmmmmmmmmmmmmmmmmmmmmmmmmmmmmmmmmmm2:             ",
"            ::mmmmmmmmmmmmmmmmmmmmmmmmmmmmmmmmmmm3:             ",
"            :3mmmmmmmmmmmmmmmmmmmmmmmmmmmmmmmnhmm7:             ",
"            :3mmmmmmmmmmmmmmmmmmmmmmmmmmmmmmhwwmm7:             ",
"            :3mmmmmmmmmmmmmmmmmmmmmmmmmmmmzawwwmm7:             ",
"            :2mmzhnmmmmmmmmmmmmmmmmmmmmmnfwwwwwmm7::            ",
"            ::mmawwdzmmmmmmmmmmmmmmmmmmzawwahzmmmm8<:           ",
"           ::7mzwwwwwazmmmmmmmmmmmmmmmzwwdzmmmmmmmma<:          ",
"          ::5mmnzhdwwwwdnmmmmmmmmmmmmzwazmmmmmmmmmmma::         ",
"          :1zmmmmmmnhdwwwzmmmmmmmmmmnahmmmmmmmmmmmmmm8::        ",
"         ::9mmmmmmmmmmnhawhmmmmmmmmmfhmmmmmmmmmmmmmmmm3:        ",
"         :<mmmmmmmmmmmmmmhahmmmmmmmzhmmmmmmmmmmmmmmmmmw::       ",
"        ::6mmmmmmmmmmmmmmmmhhmmmmmmhmmmmmmmmmmmmmmmmmmm3:       ",
"        ::0mmmmmmmmmmmmmmmmmmmmmmmmmmmmmmmmmmmmmmmmmmmm9::      ",
"        ::hmmmmmmmmmmmmmmmmmmmmmmmmmmmmmmmmmmmmmmmmmmmmz::      ",
"        ::mmmmmmmmmmmmmmmmmmmvmmmmmmmmmmmmmmmmmmmmmmmmmm2:      ",
"        ::mmmmmmmmmmmmmmmmmmmVWWWHmmmmmmmmmmmmmmmmmmmmmm5:      ",
"        ::zmmmmmmmmmmmmmmmmmmBWWWGmmmmmmmmmmmmmmmmmmmmmm7:      ",
"        ::8mmmmmmmmmmmmmmmmmr*WWWFmmmmmmmmmmmmmmmmmmmmmm7:      ",
"         :<ammmmmmmmmmmmmmmcN*WWWDmmmmmmmmmmmmmmmmmmmmmm7:      ",
"         ::<wmmmmmmmmmmmmmvN@*WWWAmmmmmmmmmmmmmmmmmmmmmm3:      ",
"          :::19mmmmmmmmmySZ*@*WWWPtmmmmmmmmmmmmmmmmmmmmh::      ",
"            ::::3777uFDJWWWWWWWWWPXcmmmmmmmmmmmmmmmmmmm2:       ",
"              :::::e@YWWWWWWWWWWWP@Nvmmmmmmmmmmmmmmmmz2::       ",
"                   .@@-YWWWWWWWWWP@*Uimmmmmmmmmmmmmz5<::        ",
"                    o@@@*LYWWWWWWRPWWWTFMmmmmmmmmw6<::          ",
"                      o@@@@@@-WWWWWWWWWR&::33333::::            ",
"                         o+@@CWWWWWWWWP@@;::::::::              ",
"                           o@PWWWWWWP*@@                        ",
"                            @RWWWRC%@@+                         ",
"                            @WWWWW@@O                           ",
"                            =WWWWW-O                            ",
"                             EEEEEK                             ",
"                                                                ",
"                                                                ",
"                                                                ",
"                                                                ",
"                                                                ",
"                                                                ",
"                                                                ",
"                                                                "
};
